
<svg xmlns="http://www.w3.org/2000/svg" width="307.203" height="100.267" viewBox="0 0 81.280793 26.528977">
  <g>
    <g id="surface19724" transform="matrix(0.93262924,0,0,0.93262924,-25.450578,-52.824703)">
      <path fill="#d7182a" d="m 27.289063,56.640625 h 5.128906 v 15.378906 h -5.128906 z m 0,0" id="path10"></path>
      <path fill="#fcaf17" d="m 34.910156,61.816406 h 10.257813 v 5.125 H 34.910156 Z m 0,0" id="path12"></path>
      <path fill="#0057a0" d="m 47.796875,56.640625 h 5.128906 v 15.378906 h -5.128906 z m 0,0" id="path14"></path>
      <path fill="#d7182a" d="m 58.050781,56.640625 h 5.125 v 15.378906 h -5.125 z m 0,0" id="path16"></path>
      <path fill="#d7182a" d="m 68.304688,56.640625 h 5.125 v 15.378906 h -5.125 z m 0,0" id="path18"></path>
      <path fill="#d7182a" d="m 78.558594,56.640625 h 5.125 v 15.378906 h -5.125 z m 0,0" id="path20"></path>
      <path fill="#0057a0" d="M 88.808594,56.640625 H 93.9375 v 15.378906 h -5.128906 z m 0,0" id="path22"></path>
      <path fill="#fcaf17" d="m 94.21875,60.429688 3.625,-3.621094 7.25,7.246094 -3.62109,3.621093 z m 0,0" id="path24"></path>
      <path fill="#d7182a" d="m 109.31641,56.640625 h 5.125 v 15.378906 h -5.125 z m 0,0" id="path26"></path>
      <path fill="#231f20" d="m 50.015625,82.765625 c 0.01953,0.851563 0.671875,1.570313 1.527344,1.570313 0.867187,0 1.582031,-0.640625 1.582031,-1.539063 0,-0.421875 -0.207031,-0.84375 -0.527344,-1.105469 -0.351562,-0.296875 -0.742187,-0.402343 -1.179687,-0.515625 -0.472656,-0.128906 -0.960938,-0.253906 -1.339844,-0.59375 C 49.652344,80.214844 49.4375,79.6875 49.4375,79.128906 c 0,-1.257812 0.96875,-2.101562 2.167969,-2.101562 1.15625,0 2.109375,0.917969 2.097656,2.109375 H 52.90625 c -0.05078,-0.789063 -0.609375,-1.359375 -1.394531,-1.359375 -0.742188,0 -1.308594,0.621094 -1.308594,1.359375 0,0.9375 0.761719,1.160156 1.503906,1.371094 0.550782,0.160156 1.027344,0.253906 1.46875,0.667968 0.453125,0.398438 0.714844,1.011719 0.714844,1.632813 0,1.289062 -1.085937,2.277344 -2.324219,2.277344 -1.304687,0 -2.378906,-0.960938 -2.367187,-2.320313 z m 0,0" id="path28"></path>
      <path fill="#231f20" d="m 69.546875,83.777344 2.644531,-6.628906 h 1.238282 V 85.03125 H 72.644531 V 78.175781 L 69.90625,85.03125 h -0.722656 l -2.734375,-6.847656 v 6.847656 h -0.796875 v -7.882812 h 1.210937 z m 0,0" id="path30"></path>
      <path fill="#231f20" d="m 60.3125,77.148438 h 4.226563 v 0.714843 h -3.4375 v 2.722657 h 3.390625 v 0.738281 H 61.097656 V 84.3125 h 3.441407 v 0.714844 H 60.3125 Z m 0,0" id="path32"></path>
      <path fill="#231f20" d="m 41.78125,85.027344 h 0.785156 v -6.921875 l 4.761719,6.921875 h 0.789063 v -7.878906 h -0.789063 v 6.46875 l -4.492187,-6.46875 H 41.78125 Z m 0,0" id="path34"></path>
      <path fill="#231f20" d="m 32.179688,77.148438 h 0.839843 v 7.878906 h -0.839843 v -3.695313 h -4.101563 v 3.695313 h -0.789062 v -7.878906 h 0.789062 v 3.46875 h 4.101563 z m 0,0" id="path36"></path>
      <path fill="#231f20" d="m 55.253906,82.765625 c 0.01953,0.851563 0.671875,1.570313 1.527344,1.570313 0.867188,0 1.582031,-0.640625 1.582031,-1.539063 0,-0.421875 -0.207031,-0.84375 -0.527343,-1.105469 -0.351563,-0.296875 -0.742188,-0.402343 -1.179688,-0.515625 -0.472656,-0.128906 -0.960937,-0.253906 -1.339844,-0.59375 -0.425781,-0.367187 -0.640625,-0.894531 -0.640625,-1.453125 0,-1.257812 0.972657,-2.101562 2.167969,-2.101562 1.15625,0 2.109375,0.917969 2.097656,2.109375 H 58.148438 C 58.09375,78.347656 57.535156,77.777344 56.75,77.777344 c -0.742187,0 -1.308594,0.621094 -1.308594,1.359375 0,0.9375 0.761719,1.160156 1.507813,1.371094 0.546875,0.160156 1.023437,0.253906 1.464844,0.667968 0.457031,0.398438 0.714843,1.011719 0.714843,1.632813 0,1.289062 -1.085937,2.277344 -2.324218,2.277344 -1.304688,0 -2.378907,-0.960938 -2.367188,-2.320313 z m 0,0" id="path38"></path>
      <path fill="#231f20" d="m 37.402344,78.0625 -1.523438,3.578125 h 3.019532 z m 3.8125,6.964844 h -0.851563 l -1.167968,-2.699219 h -3.613282 l -1.167968,2.699219 H 33.5625 l 3.398438,-7.878906 h 0.871093 z m 0,0" id="path40"></path>
    </g>
  </g>
</svg>